<svg width="63" height="7" viewBox="0 0 63 7" fill="none" xmlns="http://www.w3.org/2000/svg">
<circle cx="31.5" cy="3.5" r="3.5" fill="#DDE0E4"/>
<circle cx="45.5" cy="3.5" r="3.5" fill="#DDE0E4"/>
<circle cx="59.5" cy="3.5" r="3.5" fill="#DDE0E4"/>
<path fill-rule="evenodd" clip-rule="evenodd" d="M3.52669 6.9999C3.5178 6.99997 3.50891 7 3.5 7C3.49109 7 3.4822 6.99997 3.47331 6.9999H3.24183V6.99062C1.42938 6.85848 0 5.34617 0 3.5C0 1.65384 1.42938 0.141521 3.24183 0.00937719V0H3.5H17.3059V0.00529369C17.3701 0.00177989 17.4349 0 17.5 0C19.433 0 21 1.567 21 3.5C21 5.433 19.433 7 17.5 7C17.4349 7 17.3701 6.99822 17.3059 6.99471V6.9999H3.52669Z" fill="#DC7000"/>
</svg>
