<svg width="28" height="28" viewBox="0 0 28 28" fill="none" xmlns="http://www.w3.org/2000/svg">
<circle cx="13.9286" cy="13.9286" r="12.9286" stroke="#DC7000" stroke-width="2"/>
<path d="M17.9911 13.3481H11.108L13.2147 10.8177C13.3133 10.6992 13.3606 10.5464 13.3465 10.393C13.3323 10.2395 13.2578 10.098 13.1393 9.99944C13.0208 9.90093 12.868 9.85354 12.7145 9.86769C12.5611 9.88184 12.4195 9.95637 12.321 10.0749L9.41921 13.557C9.39969 13.5847 9.38223 13.6138 9.36698 13.6441C9.36698 13.6731 9.36698 13.6905 9.32635 13.7195C9.30005 13.7861 9.28627 13.8569 9.28573 13.9285C9.28627 14 9.30005 14.0708 9.32635 14.1374C9.32635 14.1664 9.32635 14.1838 9.36698 14.2128C9.38223 14.2431 9.39969 14.2722 9.41921 14.2999L12.321 17.782C12.3756 17.8475 12.4439 17.9002 12.5211 17.9363C12.5984 17.9725 12.6826 17.9911 12.7679 17.991C12.9035 17.9912 13.0349 17.944 13.1393 17.8575C13.1981 17.8088 13.2466 17.7489 13.2822 17.6814C13.3179 17.6139 13.3398 17.54 13.3468 17.464C13.3538 17.388 13.3458 17.3113 13.3231 17.2384C13.3004 17.1655 13.2636 17.0978 13.2147 17.0392L11.108 14.5088H17.9911C18.145 14.5088 18.2926 14.4477 18.4015 14.3388C18.5103 14.23 18.5714 14.0824 18.5714 13.9285C18.5714 13.7745 18.5103 13.6269 18.4015 13.5181C18.2926 13.4092 18.145 13.3481 17.9911 13.3481Z" fill="#DC7000"/>
</svg>
