<svg width="120" height="116" viewBox="0 0 101 116" fill="none" xmlns="http://www.w3.org/2000/svg">
<g filter="url(#filter0_d_38_986)">
<circle cx="58.0716" cy="43.9286" r="13.9286" fill="#DC7000"/>
<circle cx="58.0716" cy="43.9286" r="12.9286" stroke="#DC7000" stroke-width="2"/>
</g>
<path d="M54.0091 43.3481H60.8922L58.7855 40.8177C58.687 40.6992 58.6396 40.5464 58.6537 40.393C58.6679 40.2395 58.7424 40.098 58.8609 39.9994C58.9794 39.9009 59.1322 39.8535 59.2857 39.8677C59.4391 39.8818 59.5807 39.9564 59.6792 40.0749L62.581 43.557C62.6005 43.5847 62.618 43.6138 62.6332 43.6441C62.6332 43.6731 62.6332 43.6905 62.6739 43.7195C62.7002 43.7861 62.7139 43.8569 62.7145 43.9285C62.7139 44 62.7002 44.0708 62.6739 44.1374C62.6739 44.1664 62.6739 44.1838 62.6332 44.2128C62.618 44.2431 62.6005 44.2722 62.581 44.2999L59.6792 47.782C59.6246 47.8475 59.5563 47.9002 59.4791 47.9363C59.4018 47.9725 59.3176 47.9911 59.2323 47.991C59.0967 47.9912 58.9653 47.944 58.8609 47.8575C58.8021 47.8088 58.7536 47.7489 58.718 47.6814C58.6824 47.6139 58.6604 47.54 58.6534 47.464C58.6464 47.388 58.6545 47.3113 58.6771 47.2384C58.6998 47.1655 58.7366 47.0978 58.7855 47.0392L60.8922 44.5088H54.0091C53.8552 44.5088 53.7076 44.4477 53.5987 44.3388C53.4899 44.23 53.4288 44.0824 53.4288 43.9285C53.4288 43.7745 53.4899 43.6269 53.5987 43.5181C53.7076 43.4092 53.8552 43.3481 54.0091 43.3481Z" fill="white"/>
<defs>
<filter id="filter0_d_38_986" x="0.143066" y="0" width="115.857" height="115.857" filterUnits="userSpaceOnUse" color-interpolation-filters="sRGB">
<feFlood flood-opacity="0" result="BackgroundImageFix"/>
<feColorMatrix in="SourceAlpha" type="matrix" values="0 0 0 0 0 0 0 0 0 0 0 0 0 0 0 0 0 0 127 0" result="hardAlpha"/>
<feOffset dy="14"/>
<feGaussianBlur stdDeviation="22"/>
<feColorMatrix type="matrix" values="0 0 0 0 0.0561111 0 0 0 0 0.0777333 0 0 0 0 0.133333 0 0 0 0.08 0"/>
<feBlend mode="normal" in2="BackgroundImageFix" result="effect1_dropShadow_38_986"/>
<feBlend mode="normal" in="SourceGraphic" in2="effect1_dropShadow_38_986" result="shape"/>
</filter>
</defs>
</svg>
